<svg width="616" height="782" viewBox="0 0 616 782" fill="none" xmlns="http://www.w3.org/2000/svg">
<path d="M616 387.5C616 621 496.5 781.5 307.5 781.5C118.5 781.5 0 605.1 0 387.5C0 169.9 156.5 0 307.5 0C458.5 0 616 182.5 616 387.5Z" fill="url(#paint0_linear_7_16)"/>
<path d="M308.5 565.8C321.04 565.8 330.92 563.14 338.14 557.82C345.36 552.5 350.68 544.71 354.1 534.45C357.52 523.81 359.61 510.89 360.37 495.69C361.51 480.49 362.08 462.82 362.08 442.68V359.46C362.08 339.7 361.51 322.22 360.37 307.02C359.61 291.44 357.52 278.52 354.1 268.26C350.68 257.62 345.36 249.64 338.14 244.32C330.92 239 321.04 236.34 308.5 236.34C295.96 236.34 286.08 239 278.86 244.32C271.64 249.64 266.32 257.62 262.9 268.26C259.48 278.52 257.2 291.44 256.06 307.02C255.3 322.22 254.92 339.7 254.92 359.46V442.68C254.92 462.82 255.3 480.49 256.06 495.69C257.2 510.89 259.48 523.81 262.9 534.45C266.32 544.71 271.64 552.5 278.86 557.82C286.08 563.14 295.96 565.8 308.5 565.8ZM308.5 606.84C257.58 606.84 219.58 589.17 194.5 553.83C169.42 518.11 156.88 467.19 156.88 401.07C156.88 334.95 169.42 284.22 194.5 248.88C219.58 213.16 257.58 195.3 308.5 195.3C359.42 195.3 397.42 213.16 422.5 248.88C447.58 284.22 460.12 334.95 460.12 401.07C460.12 467.19 447.58 518.11 422.5 553.83C397.42 589.17 359.42 606.84 308.5 606.84Z" fill="white"/>
<defs>
<linearGradient id="paint0_linear_7_16" x1="69" y1="168.5" x2="512.5" y2="686.5" gradientUnits="userSpaceOnUse">
<stop offset="0.47172" stop-color="#E79A54"/>
<stop offset="1" stop-color="#935217"/>
</linearGradient>
</defs>
</svg>
