<svg width="40" height="40" viewBox="0 0 40 40" fill="none" xmlns="http://www.w3.org/2000/svg">
<mask id="mask0_252_1392" style="mask-type:luminance" maskUnits="userSpaceOnUse" x="0" y="0" width="40" height="40">
<path d="M0 1.14441e-05H40V40H0V1.14441e-05Z" fill="white"/>
</mask>
<g mask="url(#mask0_252_1392)">
<path d="M8.59961 31.1826C8.59961 33.5573 6.67453 35.4824 4.29984 35.4824C1.92508 35.4824 0 33.5573 0 31.1826C0 28.8079 1.92508 26.8827 4.29984 26.8827C6.67453 26.8827 8.59961 28.8079 8.59961 31.1826Z" fill="#D69569"/>
<path d="M13.1334 23.5924C13.1334 26.9964 10.374 29.7559 6.97 29.7559C3.56609 29.7559 0.806641 26.9964 0.806641 23.5924C0.806641 20.1884 3.56609 17.429 6.97 17.429C10.374 17.429 13.1334 20.1884 13.1334 23.5924Z" fill="#E3A67B"/>
<path d="M10.9711 7.85381C10.1584 7.85381 9.36875 7.95201 8.61266 8.13592C8.34641 7.21061 7.63812 6.54866 6.80586 6.54866C5.7457 6.54866 4.88625 7.62248 4.88625 8.94709C4.88625 9.04436 4.89141 9.14014 4.90047 9.23436C4.01781 8.65178 2.9443 8.64201 2.31117 9.27514C1.56156 10.0248 1.71312 11.3918 2.64977 12.3284C2.65305 12.3317 2.65641 12.3347 2.65969 12.338C1.6282 13.9051 1.02734 15.7811 1.02734 17.7976V19.6772H20.9148V17.7976C20.9148 12.3058 16.4629 7.85381 10.9711 7.85381Z" fill="#F2B88F"/>
<path d="M5.00961 18.1789C5.00961 14.2727 7.04383 8.66006 10.9711 7.85381C10.1584 7.85381 9.36875 7.95201 8.61266 8.13592C8.34641 7.21053 7.63812 6.54865 6.80586 6.54865C5.7457 6.54865 4.88625 7.62248 4.88625 8.94709C4.88625 9.04436 4.89141 9.14014 4.90047 9.23436C4.01781 8.65178 2.9443 8.64201 2.31117 9.27514C1.56156 10.0247 1.71312 11.3918 2.64977 12.3284C2.65305 12.3317 2.65641 12.3347 2.65969 12.338C1.6282 13.9051 1.02734 15.7811 1.02734 17.7976V19.6772H5.00961V18.1789Z" fill="#E3A67B"/>
<path d="M2.22968 34.6178C3.04257 29.989 6.64311 26.5008 10.9617 26.5008V22.349H23.3097L21.7411 36.603H3.67421C2.75007 36.603 2.04905 35.6461 2.22968 34.6178Z" fill="#4CA9F4"/>
<path d="M5.9496 34.6178C6.64241 30.6728 9.3603 27.5569 12.8216 26.7222C12.2217 26.5775 11.5996 26.5008 10.9617 26.5008C6.64312 26.5008 3.04257 29.989 2.22968 34.6178C2.04906 35.6461 2.74999 36.603 3.67421 36.603H7.39413C6.46999 36.603 5.76898 35.6461 5.9496 34.6178Z" fill="#0090E0"/>
<path d="M13.2601 28.6962C13.2601 30.0311 12.1779 31.1133 10.843 31.1133C9.50797 31.1133 8.42578 30.0311 8.42578 28.6962C8.42578 27.3613 9.50797 26.2791 10.843 26.2791C12.1779 26.2791 13.2601 27.3613 13.2601 28.6962Z" fill="#FFCDBE"/>
<path d="M4.36906 20.5376C4.36906 21.7441 3.39102 22.7222 2.18453 22.7222C0.978047 22.7222 0 21.7441 0 20.5376C0 19.3312 0.978047 18.3531 2.18453 18.3531C3.39102 18.3531 4.36906 19.3312 4.36906 20.5376Z" fill="#FFCDBE"/>
<path d="M19.4481 18.3539C18.3787 18.2828 17.2683 18.0357 16.1735 17.5874C13.6462 16.5524 11.6627 14.7131 10.8418 12.7164C10.021 14.7131 8.03742 16.5524 5.51016 17.5874C4.41539 18.0357 3.305 18.2828 2.23555 18.3539C2.12359 18.9136 2.06445 19.4923 2.06445 20.085C2.06445 24.9325 5.99422 28.8623 10.8418 28.8623C15.6895 28.8623 19.6191 24.9325 19.6191 20.085C19.6191 19.4923 19.5601 18.9136 19.4481 18.3539Z" fill="#FFE2D2"/>
<path d="M10.0591 28.8271C6.97687 26.4391 4.99226 23.3057 4.99226 17.7841L4.99211 17.7837C4.06672 18.1086 3.13664 18.2939 2.23547 18.3539C2.12352 18.9136 2.06445 19.4923 2.06445 20.085C2.06445 24.6687 5.57828 28.4311 10.0591 28.8271Z" fill="#FFDECF"/>
<path d="M39.2309 23.6483C39.2309 28.2152 34.6631 31.9175 29.0285 31.9175C23.3939 31.9175 18.8262 28.2152 18.8262 23.6483C18.8262 19.0813 23.3939 15.3791 29.0285 15.3791C34.6631 15.3791 39.2309 19.0813 39.2309 23.6483Z" fill="#5F7080"/>
<path d="M20.2961 34.6178C21.109 29.989 24.7095 26.5008 29.0281 26.5008C33.3467 26.5008 36.9473 29.989 37.7601 34.6178C37.9408 35.6461 37.2398 36.603 36.3156 36.603H21.7406C20.8165 36.603 20.1155 35.6461 20.2961 34.6178Z" fill="#FF5F7A"/>
<path d="M24.016 34.6178C24.7088 30.6728 27.4267 27.5569 30.888 26.7222C30.2881 26.5775 29.666 26.5008 29.028 26.5008C24.7095 26.5008 21.109 29.989 20.2961 34.6178C20.1155 35.6461 20.8165 36.603 21.7406 36.603H25.4605C24.5364 36.603 23.8354 35.6461 24.016 34.6178Z" fill="#FB4455"/>
<path d="M31.4124 28.6962C31.4124 30.0311 30.3302 31.1133 28.9953 31.1133C27.6603 31.1133 26.5781 30.0311 26.5781 28.6962C26.5781 27.3613 27.6603 26.2791 28.9953 26.2791C30.3302 26.2791 31.4124 27.3613 31.4124 28.6962Z" fill="#FFCDBE"/>
<path d="M33.862 8.23113C33.862 10.9011 31.6976 13.0654 29.0277 13.0654C26.3577 13.0654 24.1934 10.9011 24.1934 8.23113C24.1934 5.56121 26.3577 3.39684 29.0277 3.39684C31.6976 3.39684 33.862 5.56121 33.862 8.23113Z" fill="#546370"/>
<path d="M39.101 18.4512C39.1862 17.9205 39.2309 17.3765 39.2309 16.8219C39.2309 11.1873 34.6632 6.61953 29.0285 6.61953C23.3939 6.61953 18.8262 11.1873 18.8262 16.8219C18.8262 17.3765 18.8709 17.9205 18.9562 18.4512H39.101Z" fill="#6B7D8E"/>
<path d="M18.8262 16.8219C18.8262 17.3765 18.8709 17.9205 18.9561 18.4512H23.2564V17.0763C23.2564 17.0763 24.1482 8.76063 29.0285 6.61953C23.3939 6.61953 18.8262 11.1873 18.8262 16.8219Z" fill="#5F7080"/>
<path d="M18.0566 20.2173C18.0566 21.4238 19.0347 22.4019 20.2412 22.4019C21.4477 22.4019 22.4257 21.4238 22.4257 20.2173C22.4257 19.0108 21.4477 18.0328 20.2412 18.0328C19.0347 18.0328 18.0566 19.0108 18.0566 20.2173Z" fill="#FFCDBE"/>
<path d="M35.6309 20.2173C35.6309 21.4238 36.6089 22.4019 37.8154 22.4019C39.0218 22.4019 39.9999 21.4238 39.9999 20.2173C39.9999 19.0108 39.0218 18.0328 37.8154 18.0328C36.6089 18.0328 35.6309 19.0108 35.6309 20.2173Z" fill="#FFDECF"/>
<path d="M35.6373 15.2311C35.2856 16.6624 34.2585 17.6347 33.0978 17.6347H24.7094C23.5487 17.6347 22.5215 16.6624 22.1699 15.2311L22.0315 14.6673L22.0309 14.6665C20.9134 16.1394 20.25 17.9756 20.25 19.967C20.25 24.8156 24.1805 28.7461 29.0291 28.7461C33.8777 28.7461 37.8082 24.8156 37.8082 19.967C37.8082 17.8644 37.0685 15.9345 35.8358 14.4229L35.6373 15.2311Z" fill="#FFE2D2"/>
<path d="M23.1762 18.4685C23.1762 17.9977 23.2045 17.5336 23.257 17.0768C22.7529 16.6525 22.3612 16.0101 22.1699 15.2312L22.0315 14.6674L22.0309 14.6667C20.9134 16.1395 20.25 17.9757 20.25 19.9671C20.25 24.7737 24.1129 28.6774 28.9035 28.7446C25.4662 26.6149 23.1762 22.8094 23.1762 18.4685Z" fill="#FFDECF"/>
<path d="M30.3125 28.7205C30.3125 30.278 31.5751 31.5405 33.1325 31.5405C34.6899 31.5405 35.9525 30.278 35.9525 28.7205C35.9525 27.1631 34.6899 25.9005 33.1325 25.9005C31.5751 25.9005 30.3125 27.1631 30.3125 28.7205Z" fill="#FFDECF"/>
</g>
</svg>
