<svg width="40" height="40" viewBox="0 0 40 40" fill="none" xmlns="http://www.w3.org/2000/svg">
<path d="M35.1403 17.9185C35.1396 17.9177 35.1389 17.917 35.1381 17.9163L22.0834 4.86328C21.5269 4.30664 20.7871 4 20.0001 4C19.2132 4 18.4734 4.3064 17.9167 4.86304L4.86874 17.9094C4.86435 17.9138 4.85971 17.9185 4.85556 17.9229C3.71286 19.072 3.71482 20.9365 4.86142 22.0828C5.38491 22.6067 6.07638 22.9102 6.81596 22.9419C6.84599 22.9448 6.87651 22.9463 6.90703 22.9463H7.4271V32.5525C7.4271 34.4534 8.97413 36 10.8754 36H15.9829C16.5008 36 16.9205 35.5803 16.9205 35.0625V27.5312C16.9205 26.6638 17.6264 25.9583 18.4939 25.9583H21.5064C22.3739 25.9583 23.0795 26.6638 23.0795 27.5312V35.0625C23.0795 35.5803 23.4995 36 24.0171 36H29.1246C31.0261 36 32.5729 34.4534 32.5729 32.5525V22.9463H33.0554C33.8421 22.9463 34.5819 22.6399 35.1389 22.0833C36.2864 20.9351 36.2872 19.0674 35.1403 17.9185Z" fill="#4CA9F4"/>
<path d="M35.1403 17.9185L35.1381 17.9163L22.0834 4.86328C21.527 4.30664 20.7872 4 20.0002 4L20 25.9583H21.5065C22.374 25.9583 23.0796 26.6638 23.0796 27.5312V35.0625C23.0796 35.5803 23.4996 36 24.0172 36H29.1246C31.0262 36 32.573 34.4534 32.573 32.5525V22.9463H33.0554C33.8421 22.9463 34.5819 22.6399 35.1389 22.0833C36.2864 20.9351 36.2872 19.0674 35.1403 17.9185Z" fill="#0090E0"/>
</svg>
