<svg width="34" height="34" viewBox="0 0 34 34" fill="none" xmlns="http://www.w3.org/2000/svg">
<path d="M11.6667 0H3.33333C1.495 0 0 1.495 0 3.33333V11.6667C0 13.505 1.495 15 3.33333 15H11.6667C13.505 15 15 13.505 15 11.6667V3.33333C15 1.495 13.505 0 11.6667 0Z" fill="#28ABFA"/>
<path d="M30.0007 0H21.6673C19.829 0 18.334 1.495 18.334 3.33333V11.6667C18.334 13.505 19.829 15 21.6673 15H30.0007C31.839 15 33.334 13.505 33.334 11.6667V3.33333C33.334 1.495 31.839 0 30.0007 0Z" fill="#0090E0"/>
<path d="M30.0007 18.3333H21.6673C19.829 18.3333 18.334 19.8283 18.334 21.6666V29.9999C18.334 31.8383 19.829 33.3333 21.6673 33.3333H30.0007C31.839 33.3333 33.334 31.8383 33.334 29.9999V21.6666C33.334 19.8283 31.839 18.3333 30.0007 18.3333Z" fill="#28ABFA"/>
<path d="M11.6667 18.3333H3.33333C1.495 18.3333 0 19.8283 0 21.6666V29.9999C0 31.8383 1.495 33.3333 3.33333 33.3333H11.6667C13.505 33.3333 15 31.8383 15 29.9999V21.6666C15 19.8283 13.505 18.3333 11.6667 18.3333Z" fill="#0090E0"/>
</svg>
