<svg width="40" height="40" viewBox="0 0 40 40" fill="none" xmlns="http://www.w3.org/2000/svg">
<path d="M11.1482 17H4.85192C3.8291 17 3 17.9365 3 19.0918V34.9082C3 36.0635 3.8291 37 4.85192 37H11.1481C12.1709 37 13 36.0635 13 34.9082V19.0918C13 17.9365 12.1709 17 11.1482 17Z" fill="#FADC60"/>
<path d="M5.93588 34.9081V19.0918C5.93588 17.9366 6.85998 17 8 17H5.06412C3.9241 17 3 17.9365 3 19.0918V34.9082C3 36.0635 3.9241 37 5.06412 37H7.99991C6.85998 36.9999 5.93588 36.0634 5.93588 34.9081Z" fill="#F2C42C"/>
<path d="M22.9629 10H16.0371C14.912 10 14 10.9278 14 12.0723V34.9277C14 36.0722 14.912 37 16.0371 37H22.9629C24.088 37 25 36.0722 25 34.9277V12.0722C25 10.9278 24.088 10 22.9629 10Z" fill="#FD6F71"/>
<path d="M16.9358 34.9277V12.0723C16.9358 10.9278 17.86 10 19 10H16.0642C14.9241 10 14 10.9278 14 12.0723V34.9277C14 36.0722 14.9241 37 16.0642 37H19C17.86 37 16.9358 36.0722 16.9358 34.9277Z" fill="#E34B4C"/>
<path d="M34.9629 3H28.0371C26.912 3 26 3.92272 26 5.06104V34.939C26 36.0773 26.912 37 28.0371 37H34.9629C36.088 37 37 36.0773 37 34.939V5.06104C36.9999 3.92272 36.0879 3 34.9629 3Z" fill="#57D0E6"/>
<path d="M28.3487 34.939V5.06104C28.3487 3.92272 29.088 3 30 3H27.6513C26.7393 3 26 3.92272 26 5.06104V34.939C26 36.0773 26.7393 37 27.6513 37H30C29.088 37 28.3487 36.0773 28.3487 34.939Z" fill="#4DB8CC"/>
</svg>
